# xmcd CD database file
#
# Track frame offsets:
#	150
#	14565
#	32831
#	52028
#	64697
#	80427
#	98654
#	116634
#	130928
#	147338
#	168566
#	183889
#	200691
#	232147
#
# Disc length: 4081 seconds
#
# Revision: 1
# Processed by: cddbd v1.5.2PL0 Copyright (c) Steve Scherf et al.
# Submitted via: CDex 1.51
#
DISCID=c90fef0e
DTITLE=Adam Brand - What A Life
DYEAR=2006
DGENRE=Australian Country
TTITLE0=Kinda Like It
TTITLE1=Open Ended Heartache
TTITLE2=Life Will Bring You Home
TTITLE3=Party Tilll The Money's All Gone
TTITLE4=Can't Live Without Your Love
TTITLE5=That Changes Everything
TTITLE6=My Boots
TTITLE7=The Bug
TTITLE8=Cigarettes and Whiskey
TTITLE9=What A Life
TTITLE10=Settle Down
TTITLE11=Drive It Till The Wheels Fall Off
TTITLE12=The Lucky One
TTITLE13=Open Ended Heartache (video)
EXTD=YEAR: 2006
EXTT0=
EXTT1=First single
EXTT2=
EXTT3=
EXTT4=
EXTT5=
EXTT6=
EXTT7=
EXTT8=
EXTT9=
EXTT10=
EXTT11=
EXTT12=
EXTT13=Open Ended Heartache (Video)
PLAYORDER=
